# AST/ASF file generated using VICON BodyLanguage
# -----------------------------------------------
:version 1.10
:name VICON
:units
  mass 1.0
  length 0.45
  angle deg
:documentation
   .ast/.asf automatically generated from VICON data using
   VICON BodyBuilder and BodyLanguage model FoxedUp or BRILLIANT.MOD
:root
   order TX TY TZ RX RY RZ
   axis XYZ
   position 0 0 0  
   orientation 0 0 0 
:bonedata
  begin
     id 1 
     name lhipjoint
     direction 0.710188 -0.616876 0.339259 
     length 2.5669 
     axis 0 0 0  XYZ
  end
  begin
     id 2 
     name lfemur
     direction 0.34202 -0.939693 0  
     length 7.12796  
     axis 0 0 20  XYZ
    dof rx ry rz
    limits (-160.0 20.0)
           (-70.0 70.0)
           (-60.0 70.0)
  end
  begin
     id 3 
     name ltibia
     direction 0.34202 -0.939693 0   
     length 7.58108   
     axis 0 0 20   XYZ
    dof rx
    limits (-10.0 170.0)
  end
  begin
     id 4 
     name lfoot
     direction 0.0669471 -0.183936 0.980656   
     length 2.17365   
     axis -90 7.62852e-016 20   XYZ
    dof rx rz
    limits (-45.0 90.0)
           (-70.0 20.0)
  end
  begin
     id 5 
     name ltoes
     direction 1.53508e-011 -4.21705e-011 1   
     length 1.09427   
     axis -90 7.62852e-016 20   XYZ
    dof rx
    limits (-90.0 20.0)
  end
  begin
     id 6 
     name rhipjoint
     direction -0.700191 -0.625589 0.34405   
     length 2.53115  
     axis 0 0 0  XYZ 
  end
  begin
     id 7 
     name rfemur
     direction -0.34202 -0.939693 0   
     length 7.33006   
     axis 0 0 -20   XYZ
    dof rx ry rz
    limits (-160.0 20.0)
           (-70.0 70.0)
           (-70.0 60.0)
  end
  begin
     id 8 
     name rtibia
     direction -0.34202 -0.939693 0   
     length 7.64926   
     axis 0 0 -20   XYZ
    dof rx
    limits (-10.0 170.0)
 end
 begin
     id 9 
     name rfoot
     direction -0.0688927 -0.189281 0.979503   
     length 2.20493  
     axis -90 -7.62852e-016 -20   XYZ
    dof rx rz
    limits (-45.0 90.0)
           (-20.0 70.0)
  end
  begin
     id 10 
     name rtoes
     direction -1.53567e-011 -4.21933e-011 1   
     length 1.10919   
     axis -90 -7.62852e-016 -20   XYZ
    dof rx
    limits (-90.0 20.0)
  end
  begin
     id 11 
     name lowerback
     direction -0.0167868 0.989873 -0.140959   
     length 2.14596   
     axis 0 0 0   XYZ
    dof rx ry rz
    limits (-20.0 45.0)
           (-30.0 30.0)
           (-30.0 30.0)
  end
  begin
     id 12 
     name upperback
     direction 0.0129109 0.998033 0.0613525   
     length 2.10457   
     axis 0 0 0   XYZ
    dof rx ry rz
    limits (-20.0 45.0)
           (-30.0 30.0)
           (-30.0 30.0)
  end
  begin
     id 13 
     name thorax
     direction 0.0177047 0.991119 0.131797   
     length 2.17652   
     axis 0 0 0   XYZ
    dof rx ry rz
    limits (-20.0 45.0)
           (-30.0 30.0)
           (-30.0 30.0)
  end
  begin
     id 14 
     name lowerneck
     direction -0.0336893 0.997548 0.0613464   
     length 1.8912   
     axis 0 0 0   XYZ
    dof rx ry rz
    limits (-20.0 45.0)
           (-30.0 30.0)
           (-30.0 30.0)
  end
  begin
     id 15 
     name upperneck
     direction 0.0435909 0.997179 -0.0611028   
     length 1.8829   
     axis 0 0 0   XYZ
    dof rx ry rz
    limits (-20.0 45.0)
           (-30.0 30.0)
           (-30.0 30.0)
  end
  begin
     id 16
     name head
     direction 0.0175076 0.999444 -0.0283782  
     length 1.93197  
     axis 0 0 0   XYZ
    dof rx ry rz
    limits (-20.0 45.0)
           (-30.0 30.0)
           (-30.0 30.0)
  end
  begin
     id 17 
     name lclavicle
     direction 0.919164 0.389875 0.0559876  
     length 3.60004  
     axis 0 0 0   XYZ
    dof ry rz
    limits (-20.0 10.0)
           (0.0 20.0)
  end
  begin
     id 18 
     name lhumerus
     direction 1 -4.48958e-011 6.89191e-027   
     length 5.43301   
     axis 180 -30 -90   XYZ
    dof rx ry rz
    limits (-60.0 90.0)
           (-90.0 90.0)
           (-90.0 90.0)
  end
  begin
     id 19
     name lradius
     direction 1 -4.4897e-011 3.24727e-027   
     length 3.15936   
     axis 180 -30 -90   XYZ
    dof rx
    limits (-10.0 170.0)
  end
  begin
     id 20
     name lwrist
     direction 1 -4.4897e-011 9.00228e-027   
     length 1.57968   
     axis -6.29373e-015 90 90   XYZ
    dof ry
    limits (-180.0 0.0)
 end
  begin
     id 21 
     name lhand
     direction 1 -4.48968e-011 1.80042e-026   
     length 0.712827   
     axis -1.14882e-014 90 90   XYZ
    dof rx rz
    limits (-90.0 90.0)
           (-45.0 45.0)
  end
  begin
     id 22 
     name lfingers
     direction 1 -4.49019e-011 3.60267e-026   
     length 0.574699   
     axis -2.29769e-014 90 90   XYZ
    dof rx
    limits (0.0 90.0)
  end
  begin
     id 23
     name lthumb
     direction 0.707107 -6.3498e-011 0.707107   
     length 0.825157   
     axis -90 45 5.37419e-014   XYZ
    dof rx rz
    limits (-45.0 45.0)
           (-45.0 45.0)
  end
  begin
     id 24 
     name rclavicle
     direction -0.890334 0.455305 -0.00132111   
     length 3.51494  
     axis 0 0 0   XYZ 
    dof ry rz
    limits (-10.0 20.0)
           (-20.0 0.0)
  end
  begin
     id 25 
     name rhumerus
     direction -1 -4.48967e-011 5.07175e-028  
     length 5.34194   
     axis 180 30 90   XYZ
    dof rx ry rz
    limits (-90.0 60.0)
           (-90.0 90.0)
           (-90.0 90.0)
  end
  begin
     id 26 
     name rradius
     direction -1 -4.48955e-011 3.30467e-027   
     length 3.19351   
     axis 180 30 90   XYZ
    dof rx
    limits (-10.0 170.0)
  end
  begin
     id 27 
     name rwrist
     direction -1 -4.48968e-011 9.00208e-027   
     length 1.59676   
     axis -6.29373e-015 -90 -90   XYZ
    dof ry
    limits (-180.0 0.0)
  end
  begin
     id 28
     name rhand
     direction -1 -4.49e-011 1.80099e-026   
     length 0.743862   
     axis -1.14882e-014 -90 -90   XYZ
    dof rx rz
    limits (-90.0 90.0)
           (-45.0 45.0)
  end
  begin
     id 29
     name rfingers
     direction -1 -4.49009e-011 3.6023e-026   
     length 0.599721   
     axis -2.29769e-014 -90 -90   XYZ
    dof rx
    limits (0.0 90.0)
  end
  begin
     id 30
     name rthumb
     direction -0.707107 -6.35025e-011 0.707107   
     length 0.861083   
     axis -90 -45 -5.37419e-014   XYZ
    dof rx rz
    limits (-45.0 45.0)
           (-45.0 45.0)
  end
:hierarchy
  begin
    root lhipjoint rhipjoint lowerback
    lhipjoint lfemur
    lfemur ltibia
    ltibia lfoot
    lfoot ltoes
    rhipjoint rfemur
    rfemur rtibia
    rtibia rfoot
    rfoot rtoes
    lowerback upperback
    upperback thorax
    thorax lowerneck lclavicle rclavicle
    lowerneck upperneck
    upperneck head
    lclavicle lhumerus
    lhumerus lradius
    lradius lwrist
    lwrist lhand lthumb
    lhand lfingers
    rclavicle rhumerus
    rhumerus rradius
    rradius rwrist
    rwrist rhand rthumb
    rhand rfingers
  end

#!OML:ASF H:\Martial Arts Walks\Project 1\Capture day 1\Session 1\male.ASF
:FULLY-SPECIFIED
:DEGREES
154
root -0.855562 11.4551 11.2741 9.13092 1.48294 -1.66904
lowerback 18.9563 1.55664 -2.3503
upperback -3.58125 1.66974 1.09913
thorax -14.9165 1.03404 2.06457
lowerneck -9.24837 -3.25771 -5.70748
upperneck 7.90917 -4.11685 5.10326
head 4.09671 -1.93313 2.22957
rclavicle -6.24929e-015 -6.06293e-015
rhumerus 39.9152 -2.63141 -63.0305
rradius 93.9272
rwrist 20.7309
rhand 1.10914 -13.957
rfingers 7.12502
rthumb 26.6523 -42.1008
lclavicle -6.24929e-015 -6.06293e-015
lhumerus 42.4167 -4.67393 86.5697
lradius 87.5531
lwrist -35.5832
lhand -10.8617 2.03075
lfingers 7.12502
lthumb 15.1537 31.4559
rfemur -73.6294 -5.34075 21.3779
rtibia 108.511
rfoot -33.3705 -17.6381
rtoes -13.292
lfemur -74.2146 11.762 -18.1787
ltibia 107.545
lfoot -31.4822 16.4566
ltoes -13.3663
155
root -0.85701 11.4546 11.2738 9.14141 1.50056 -1.68361
lowerback 18.9545 1.55095 -2.33819
upperback -3.58747 1.66628 1.10693
thorax -14.9225 1.03203 2.06765
lowerneck -9.24985 -3.26462 -5.71526
upperneck 7.91369 -4.12575 5.10893
head 4.09911 -1.93742 2.23194
rclavicle -1.74309e-014 -8.99501e-015
rhumerus 39.9132 -2.63103 -63.0244
rradius 93.9279
rwrist 20.7352
rhand 1.09122 -13.9543
rfingers 7.12502
rthumb 26.6352 -42.1007
lclavicle -1.74309e-014 -8.99501e-015
lhumerus 42.4031 -4.67805 86.5628
lradius 87.5568
lwrist -35.5858
lhand -10.8707 2.01634
lfingers 7.12502
lthumb 15.145 31.4422
rfemur -73.6427 -5.3292 21.3992
rtibia 108.513
rfoot -33.3611 -17.6614
rtoes -13.278
lfemur -74.2388 11.7389 -18.1538
ltibia 107.552
lfoot -31.4679 16.4711
ltoes -13.3689
156
root -0.858513 11.4544 11.2734 9.15202 1.51704 -1.70015
lowerback 18.9553 1.54604 -2.32559
upperback -3.5952 1.66409 1.11592
thorax -14.9319 1.03067 2.07135
lowerneck -9.24556 -3.26986 -5.72115
upperneck 7.9139 -4.13232 5.10979
head 4.09897 -1.94085 2.23276
rclavicle 4.37326e-015 2.13694e-015
rhumerus 39.9086 -2.62828 -63.0174
rradius 93.9313
rwrist 20.7404
rhand 1.07748 -13.9539
rfingers 7.12502
rthumb 26.622 -42.1022
lclavicle 4.37326e-015 2.13694e-015
lhumerus 42.3849 -4.68339 86.5564
lradius 87.5584
lwrist -35.5904
lhand -10.8949 1.99917
lfingers 7.12502
lthumb 15.1217 31.4268
rfemur -73.6557 -5.31537 21.423
rtibia 108.511
rfoot -33.3482 -17.6822
rtoes -13.2529
lfemur -74.2624 11.7197 -18.1267
ltibia 107.556
lfoot -31.4532 16.4819
ltoes -13.3782
157
root -0.860026 11.4544 11.2728 9.16302 1.53212 -1.71545
lowerback 18.9579 1.54221 -2.31508
upperback -3.60272 1.6628 1.12486
thorax -14.9424 1.02991 2.07589
lowerneck -9.23995 -3.2736 -5.72658
upperneck 7.90799 -4.13659 5.10839
head 4.09656 -1.94328 2.233
rclavicle -1.04983e-014 -4.17448e-015
rhumerus 39.9044 -2.62623 -63.0102
rradius 93.9378
rwrist 20.7428
rhand 1.0757 -13.9548
rfingers 7.12502
rthumb 26.6203 -42.1035
lclavicle -1.04983e-014 -4.17448e-015
lhumerus 42.3678 -4.69 86.5495
lradius 87.5585
lwrist -35.596
lhand -10.924 1.98671
lfingers 7.12502
lthumb 15.0937 31.4164
rfemur -73.6694 -5.30289 21.4464
rtibia 108.508
rfoot -33.3341 -17.701
rtoes -13.2345
lfemur -74.2855 11.7039 -18.1018
ltibia 107.557
lfoot -31.4389 16.4885
ltoes -13.3868
158
root -0.861523 11.4543 11.272 9.17334 1.5439 -1.72774
lowerback 18.9635 1.54023 -2.30851
upperback -3.60918 1.66279 1.13265
thorax -14.9536 1.03 2.08093
lowerneck -9.23662 -3.27641 -5.72447
upperneck 7.89719 -4.13952 5.09907
head 4.09263 -1.94522 2.22967
rclavicle -1.67228e-014 -7.00716e-015
rhumerus 39.9021 -2.62609 -63.0028
rradius 93.9438
rwrist 20.7419
rhand 1.08224 -13.9545
rfingers 7.12502
rthumb 26.6266 -42.1021
lclavicle -1.67228e-014 -7.00716e-015
lhumerus 42.3533 -4.69691 86.5423
lradius 87.557
lwrist -35.6022
lhand -10.9535 1.97819
lfingers 7.12502
lthumb 15.0653 31.41
rfemur -73.6835 -5.29218 21.4676
rtibia 108.505
rfoot -33.3208 -17.7162
rtoes -13.2274
lfemur -74.306 11.6938 -18.0812
ltibia 107.557
lfoot -31.4254 16.4944
ltoes -13.4068
159
root -0.863032 11.4544 11.2711 9.18177 1.55349 -1.73964
lowerback 18.9724 1.53973 -2.30295
upperback -3.61418 1.66438 1.13998
thorax -14.9651 1.03086 2.08548
lowerneck -9.22891 -3.27785 -5.71964
upperneck 7.875 -4.14062 5.08765
head 4.08431 -1.94636 2.22547
rclavicle 2.06985e-014 6.5102e-015
rhumerus 39.9013 -2.6291 -62.9955
rradius 93.9515
rwrist 20.735
rhand 1.10378 -13.9549
rfingers 7.12502
rthumb 26.6472 -42.0995
lclavicle 2.06985e-014 6.5102e-015
lhumerus 42.3431 -4.7046 86.535
lradius 87.5539
lwrist -35.6049
lhand -10.9745 1.9749
lfingers 7.12502
lthumb 15.0451 31.4082
rfemur -73.6944 -5.28231 21.489
rtibia 108.501
rfoot -33.3112 -17.7263
rtoes -13.2253
lfemur -74.3241 11.6894 -18.0609
ltibia 107.555
lfoot -31.4193 16.4828
ltoes -13.3987
160
root -0.864508 11.4546 11.27 9.18958 1.56062 -1.74716
lowerback 18.9845 1.54064 -2.30149
upperback -3.61858 1.66654 1.1456
thorax -14.978 1.03223 2.09021
lowerneck -9.21708 -3.27735 -5.71513
upperneck 7.84322 -4.13926 5.07921
head 4.07231 -1.94621 2.2225
rclavicle -1.10574e-014 8.64713e-015
rhumerus 39.9017 -2.63432 -62.9883
rradius 93.9587
rwrist 20.7243
rhand 1.13387 -13.9576
rfingers 7.12502
rthumb 26.676 -42.0977
lclavicle -1.10574e-014 8.64713e-015
lhumerus 42.337 -4.71121 86.5286
lradius 87.5514
lwrist -35.6054
lhand -10.9832 1.97155
lfingers 7.12502
lthumb 15.0367 31.4055
rfemur -73.7053 -5.27578 21.5059
rtibia 108.498
rfoot -33.3047 -17.7317
rtoes -13.2309
lfemur -74.3413 11.689 -18.047
ltibia 107.553
lfoot -31.4151 16.4669
ltoes -13.3867
161
root -0.865969 11.4547 11.2688 9.19811 1.56494 -1.75574
lowerback 18.9998 1.54276 -2.29917
upperback -3.62343 1.6704 1.15073
thorax -14.9934 1.0343 2.09329
lowerneck -9.20096 -3.27501 -5.71058
upperneck 7.80355 -4.13573 5.07391
head 4.05715 -1.94489 2.22072
rclavicle -3.47873e-016 -3.23025e-015
rhumerus 39.9023 -2.64196 -62.982
rradius 93.9645
rwrist 20.711
rhand 1.16582 -13.9584
rfingers 7.12502
rthumb 26.7065 -42.0939
lclavicle -3.47873e-016 -3.23025e-015
lhumerus 42.3355 -4.7166 86.5242
lradius 87.55
lwrist -35.6062
lhand -10.9701 1.9718
lfingers 7.12502
lthumb 15.0493 31.4048
rfemur -73.718 -5.26854 21.5241
rtibia 108.495
rfoot -33.3007 -17.7316
rtoes -13.2328
lfemur -74.3608 11.6962 -18.0343
ltibia 107.551
lfoot -31.411 16.4496
ltoes -13.3803
162
root -0.867328 11.4548 11.2674 9.20726 1.56984 -1.76254
lowerback 19.0167 1.54494 -2.29582
upperback -3.62819 1.67437 1.15457
thorax -15.0096 1.03625 2.09427
lowerneck -9.17971 -3.27016 -5.71012
upperneck 7.75675 -4.12898 5.07523
head 4.03903 -1.94184 2.22195
rclavicle 9.20621e-015 -1.54058e-015
rhumerus 39.9039 -2.65247 -62.9751
rradius 93.9698
rwrist 20.6974
rhand 1.19207 -13.9598
rfingers 7.12502
rthumb 26.7317 -42.0915
lclavicle 9.20621e-015 -1.54058e-015
lhumerus 42.3384 -4.72161 86.523
lradius 87.5492
lwrist -35.6057
lhand -10.9426 1.96968
lfingers 7.12502
lthumb 15.0758 31.4007
rfemur -73.7318 -5.26573 21.5404
rtibia 108.492
rfoot -33.2997 -17.7262
rtoes -13.2169
lfemur -74.3829 11.7039 -18.0248
ltibia 107.55
lfoot -31.4076 16.4282
ltoes -13.3727
163
root -0.868592 11.4549 11.2658 9.21906 1.57476 -1.76812
lowerback 19.0336 1.54685 -2.29213
upperback -3.63356 1.67795 1.15748
thorax -15.0265 1.03794 2.09412
lowerneck -9.16152 -3.26419 -5.71015
upperneck 7.71214 -4.12071 5.07781
head 4.02203 -1.93795 2.22371
rclavicle 1.14301e-014 1.49089e-016
rhumerus 39.9073 -2.66346 -62.9687
rradius 93.9728
rwrist 20.6866
rhand 1.20586 -13.9574
rfingers 7.12502
rthumb 26.7449 -42.0871
lclavicle 1.14301e-014 1.49089e-016
lhumerus 42.3448 -4.72529 86.5229
lradius 87.5512
lwrist -35.6055
lhand -10.9037 1.97069
lfingers 7.12502
lthumb 15.1133 31.3989
rfemur -73.751 -5.26726 21.5563
rtibia 108.49
rfoot -33.2974 -17.719
rtoes -13.1896
lfemur -74.4096 11.7126 -18.0185
ltibia 107.549
lfoot -31.4013 16.4115
ltoes -13.3767
164
root -0.869734 11.4549 11.2642 9.23172 1.58003 -1.7747
lowerback 19.0499 1.54829 -2.2847
upperback -3.63885 1.68171 1.15968
thorax -15.0428 1.03933 2.09097
lowerneck -9.14406 -3.25644 -5.71204
upperneck 7.66952 -4.11018 5.08413
head 4.00576 -1.93278 2.22704
rclavicle 6.12505e-015 -1.44119e-015
rhumerus 39.9122 -2.67463 -62.9617
rradius 93.9745
rwrist 20.6794
rhand 1.20071 -13.9528
rfingers 7.12502
rthumb 26.7399 -42.0832
lclavicle 6.12505e-015 -1.44119e-015
lhumerus 42.3537 -4.72818 86.5239
lradius 87.5533
lwrist -35.6054
lhand -10.8645 1.97165
lfingers 7.12502
lthumb 15.1511 31.397
rfemur -73.7727 -5.27143 21.5742
rtibia 108.488
rfoot -33.2906 -17.7151
rtoes -13.1495
lfemur -74.4384 11.7217 -18.0119
ltibia 107.55
lfoot -31.3966 16.3927
ltoes -13.3804
165
root -0.870709 11.4549 11.2627 9.2448 1.58673 -1.78133
lowerback 19.0651 1.54826 -2.27414
upperback -3.64323 1.68422 1.16124
thorax -15.0571 1.03979 2.08572
lowerneck -9.13319 -3.24875 -5.71274
upperneck 7.63297 -4.09952 5.08816
head 3.99235 -1.92754 2.22938
rclavicle -2.48978e-014 -1.43622e-014
rhumerus 39.9212 -2.68441 -62.9567
rradius 93.9753
rwrist 20.6785
rhand 1.18223 -13.95
rfingers 7.12502
rthumb 26.7222 -42.0831
lclavicle -2.48978e-014 -1.43622e-014
lhumerus 42.3642 -4.72938 86.5235
lradius 87.554
lwrist -35.6049
lhand -10.8308 1.97596
lfingers 7.12502
lthumb 15.1835 31.3989
rfemur -73.7959 -5.28082 21.5926
rtibia 108.486
rfoot -33.2814 -17.7106
rtoes -13.1095
lfemur -74.4683 11.7288 -18.0056
ltibia 107.55
lfoot -31.3916 16.3717
ltoes -13.3733
166
root -0.871567 11.4548 11.2611 9.25929 1.59358 -1.78575
lowerback 19.0763 1.54739 -2.26423
upperback -3.64603 1.68537 1.16188
thorax -15.067 1.03959 2.08027
lowerneck -9.12852 -3.24124 -5.71036
upperneck 7.60191 -4.08887 5.08728
head 3.98146 -1.92237 2.22961
rclavicle -2.54693e-015 -1.16786e-014
rhumerus 39.9351 -2.69274 -62.9541
rradius 93.9756
rwrist 20.6807
rhand 1.15408 -13.9481
rfingers 7.12502
rthumb 26.6953 -42.0853
lclavicle -2.54693e-015 -1.16786e-014
lhumerus 42.3772 -4.72749 86.5225
lradius 87.5531
lwrist -35.6025
lhand -10.8099 1.9833
lfingers 7.12502
lthumb 15.2036 31.4047
rfemur -73.8226 -5.29459 21.6093
rtibia 108.485
rfoot -33.2694 -17.7064
rtoes -13.0873
lfemur -74.4987 11.7338 -18.0023
ltibia 107.551
lfoot -31.3847 16.3549
ltoes -13.3676
167
root -0.872365 11.4546 11.2596 9.27355 1.60131 -1.79128
lowerback 19.0882 1.54583 -2.25133
upperback -3.64848 1.68627 1.16204
thorax -15.0767 1.03895 2.07264
lowerneck -9.13007 -3.23543 -5.7032
upperneck 7.57905 -4.0804 5.07944
head 3.97398 -1.9184 2.22666
rclavicle -1.90088e-015 -1.63997e-015
rhumerus 39.9502 -2.70123 -62.9561
rradius 93.9776
rwrist 20.6849
rhand 1.12427 -13.9478
rfingers 7.12502
rthumb 26.6668 -42.0893
lclavicle -1.90088e-015 -1.63997e-015
lhumerus 42.3891 -4.72476 86.5214
lradius 87.5489
lwrist -35.6
lhand -10.8071 1.98932
lfingers 7.12502
lthumb 15.2063 31.4105
rfemur -73.8506 -5.31089 21.628
rtibia 108.484
rfoot -33.2541 -17.7027
rtoes -13.0766
lfemur -74.529 11.7382 -17.9981
ltibia 107.552
lfoot -31.3734 16.3429
ltoes -13.3582
168
root -0.873103 11.4543 11.2581 9.28835 1.60939 -1.79196
lowerback 19.0973 1.5439 -2.24247
upperback -3.64944 1.68553 1.16101
thorax -15.0829 1.03782 2.06653
lowerneck -9.1352 -3.23113 -5.69587
upperneck 7.56034 -4.07364 5.06854
head 3.96837 -1.91536 2.22257
rclavicle 7.52897e-015 -7.35503e-015
rhumerus 39.9683 -2.70979 -62.9622
rradius 93.9801
rwrist 20.6903
rhand 1.0939 -13.951
rfingers 7.12502
rthumb 26.6377 -42.097
lclavicle 7.52897e-015 -7.35503e-015
lhumerus 42.4013 -4.71918 86.521
lradius 87.544
lwrist -35.5925
lhand -10.8137 1.99142
lfingers 7.12502
lthumb 15.1999 31.4131
rfemur -73.8801 -5.33131 21.6408
rtibia 108.485
rfoot -33.2423 -17.6915
rtoes -13.0798
lfemur -74.5593 11.7383 -17.9992
ltibia 107.551
lfoot -31.3598 16.3315
ltoes -13.3392
